<svg xmlns="http://www.w3.org/2000/svg" width="25.662" height="22.754" viewBox="0 0 25.662 22.754">
  <g id="Grupo_482" data-name="Grupo 482" transform="translate(-13.997 -16.634)">
    <path id="Trazado_33" data-name="Trazado 33" d="M106.967,114.431a.922.922,0,0,0,.916.827.935.935,0,0,0,.1,0,.922.922,0,0,0,.822-1.012l-.425-4.114a.922.922,0,1,0-1.834.19Z" transform="translate(-81.165 -85.581)" fill="#413e3b"/>
    <path id="Trazado_34" data-name="Trazado 34" d="M151.069,115.254a.933.933,0,0,0,.1,0,.922.922,0,0,0,.916-.827l.425-4.114a.922.922,0,0,0-1.834-.19l-.425,4.114A.922.922,0,0,0,151.069,115.254Z" transform="translate(-119.497 -85.581)" fill="#413e3b"/>
    <path id="Trazado_35" data-name="Trazado 35" d="M78.537,190.329a2.854,2.854,0,1,0,2.854,2.854A2.857,2.857,0,0,0,78.537,190.329Zm0,3.864a1.01,1.01,0,1,1,1.01-1.011A1.011,1.011,0,0,1,78.537,194.193Z" transform="translate(-54.104 -156.649)" fill="#413e3b"/>
    <path id="Trazado_36" data-name="Trazado 36" d="M155.977,190.329a2.854,2.854,0,1,0,2.854,2.854A2.857,2.857,0,0,0,155.977,190.329Zm0,3.864a1.01,1.01,0,1,1,1.01-1.011A1.011,1.011,0,0,1,155.977,194.193Z" transform="translate(-122.025 -156.649)" fill="#413e3b"/>
    <path id="Trazado_37" data-name="Trazado 37" d="M39.467,55.671a.922.922,0,0,0-.729-.358H20.361l-.772-2.967a.922.922,0,0,0-.892-.69H14.919a.922.922,0,1,0,0,1.844h3.066l.765,2.941c0,.018.009.037.014.055l2.846,10.943a.922.922,0,0,0,.892.69H35.884a.922.922,0,0,0,.892-.69L39.63,56.467A.922.922,0,0,0,39.467,55.671Zm-4.3,10.613H23.214l-2.373-9.127h16.7Z" transform="translate(0 -35.022)" fill="#413e3b"/>
  </g>
</svg>
