<svg xmlns="http://www.w3.org/2000/svg" width="198.745" height="53" viewBox="0 0 198.745 53">
  <g id="Grupo_474" data-name="Grupo 474" transform="translate(-115.139 -212.041)">
    <g id="Grupo_471" data-name="Grupo 471" transform="translate(188.986 225.585)">
      <path id="Trazado_1" data-name="Trazado 1" d="M353.876,289.83v-7.338a3.342,3.342,0,0,0-.266-1.542.925.925,0,0,0-.877-.479,1.205,1.205,0,0,0-.864.426,2.168,2.168,0,0,0-.412,1.515v7.418h-6.142V275.845H351.3v1.542h.053a4.672,4.672,0,0,1,.652-.679,5.475,5.475,0,0,1,.877-.611,4.955,4.955,0,0,1,1.1-.452,4.876,4.876,0,0,1,1.33-.173,5.418,5.418,0,0,1,2.393.492,3.634,3.634,0,0,1,1.6,1.528,6.105,6.105,0,0,1,1.7-1.435,5.034,5.034,0,0,1,2.553-.585,4.482,4.482,0,0,1,4,2.047,5.714,5.714,0,0,1,.8,1.9,8.867,8.867,0,0,1,.226,1.9v8.508h-6.142v-7.444a2.847,2.847,0,0,0-.279-1.529,1,1,0,0,0-.864-.386,1.1,1.1,0,0,0-.9.492,2.374,2.374,0,0,0-.372,1.449v7.418Z" transform="translate(-345.315 -268.666)" fill="#413e3b"/>
      <path id="Trazado_2" data-name="Trazado 2" d="M425.947,257.395a2.948,2.948,0,0,1,.253-1.21,3.137,3.137,0,0,1,.691-1,3.392,3.392,0,0,1,1.023-.678,3.117,3.117,0,0,1,1.25-.253,2.867,2.867,0,0,1,1.2.253,3.483,3.483,0,0,1,1,.678,3.143,3.143,0,0,1,.692,1,2.968,2.968,0,0,1,.253,1.21,3.037,3.037,0,0,1-.253,1.236,2.977,2.977,0,0,1-.692.983,3.382,3.382,0,0,1-1,.651,3,3,0,0,1-1.2.239,3.263,3.263,0,0,1-1.25-.239,3.3,3.3,0,0,1-1.023-.651,2.971,2.971,0,0,1-.691-.983A3.016,3.016,0,0,1,425.947,257.395Zm.107,4.041H432.2V275.42h-6.142Z" transform="translate(-400.078 -254.257)" fill="#413e3b"/>
      <path id="Trazado_3" data-name="Trazado 3" d="M454.288,275.845h5.983v1.542h.053a4.443,4.443,0,0,1,1.577-1.343,4.921,4.921,0,0,1,2.4-.571,4.994,4.994,0,0,1,2.425.531,4.364,4.364,0,0,1,1.537,1.37,5.294,5.294,0,0,1,.8,1.874,9.729,9.729,0,0,1,.226,2.074v8.508h-6.142v-7.444a2.493,2.493,0,0,0-.332-1.489,1.187,1.187,0,0,0-1-.426,1.21,1.21,0,0,0-1,.492,2.266,2.266,0,0,0-.386,1.423v7.444h-6.142Z" transform="translate(-419.326 -268.666)" fill="#413e3b"/>
      <path id="Trazado_4" data-name="Trazado 4" d="M509.23,257.395a2.948,2.948,0,0,1,.253-1.21,3.157,3.157,0,0,1,.691-1,3.386,3.386,0,0,1,1.023-.678,3.121,3.121,0,0,1,1.25-.253,2.865,2.865,0,0,1,1.2.253,3.48,3.48,0,0,1,1,.678,3.148,3.148,0,0,1,.692,1,2.968,2.968,0,0,1,.252,1.21,3.037,3.037,0,0,1-.252,1.236,2.982,2.982,0,0,1-.692.983,3.378,3.378,0,0,1-1,.651,3,3,0,0,1-1.2.239,3.31,3.31,0,0,1-2.273-.891,3.019,3.019,0,0,1-.944-2.22Zm.107,4.041h6.142V275.42h-6.142Z" transform="translate(-456.642 -254.257)" fill="#413e3b"/>
      <path id="Trazado_5" data-name="Trazado 5" d="M537.572,257.571h6.274v20.1h-6.274Z" transform="translate(-475.891 -256.508)" fill="#413e3b"/>
      <path id="Trazado_6" data-name="Trazado 6" d="M579.327,282.631q0,.346-.013.7t-.04.6h-9.411a1.2,1.2,0,0,0,.253.665,2.181,2.181,0,0,0,.558.5,2.545,2.545,0,0,0,.744.319,3.338,3.338,0,0,0,.838.106,2.992,2.992,0,0,0,1.423-.305,2.7,2.7,0,0,0,.864-.678l4.361,2.206a6.425,6.425,0,0,1-2.7,2.393,9.135,9.135,0,0,1-4.108.878,9.259,9.259,0,0,1-2.951-.479,7.514,7.514,0,0,1-2.539-1.422,6.932,6.932,0,0,1-1.768-2.353,7.576,7.576,0,0,1-.665-3.27,7.693,7.693,0,0,1,.612-3.124,6.992,6.992,0,0,1,1.661-2.366,7.43,7.43,0,0,1,2.473-1.5,8.607,8.607,0,0,1,3.043-.532,7.659,7.659,0,0,1,3,.572,6.823,6.823,0,0,1,2.326,1.6,7.175,7.175,0,0,1,1.5,2.432A8.594,8.594,0,0,1,579.327,282.631Zm-5.291-1.994a1.553,1.553,0,0,0-.545-1.223,2.155,2.155,0,0,0-1.475-.479,2.119,2.119,0,0,0-1.569.559,2.027,2.027,0,0,0-.638,1.143Z" transform="translate(-493.957 -268.327)" fill="#413e3b"/>
      <path id="Trazado_7" data-name="Trazado 7" d="M618.119,275.845H624.1v1.542h.053a4.441,4.441,0,0,1,1.577-1.343,4.924,4.924,0,0,1,2.4-.571,4.993,4.993,0,0,1,2.425.531,4.368,4.368,0,0,1,1.537,1.37,5.3,5.3,0,0,1,.8,1.874,9.77,9.77,0,0,1,.226,2.074v8.508h-6.141v-7.444a2.5,2.5,0,0,0-.333-1.489,1.188,1.188,0,0,0-1-.426,1.21,1.21,0,0,0-1,.492,2.268,2.268,0,0,0-.386,1.423v7.444h-6.142Z" transform="translate(-530.596 -268.666)" fill="#413e3b"/>
      <path id="Trazado_8" data-name="Trazado 8" d="M676.416,284.347a6.127,6.127,0,0,1-4.174-1.21,4.791,4.791,0,0,1-1.356-3.762v-5h-1.968V269.99h1.941v-3.138h5.956v3.138h3.031v4.387h-3.031V278.1a1.707,1.707,0,0,0,.439,1.369,1.853,1.853,0,0,0,1.209.359,3.673,3.673,0,0,0,.611-.054,4.509,4.509,0,0,0,.506-.106v4.2a5.514,5.514,0,0,1-1.343.345A11.957,11.957,0,0,1,676.416,284.347Z" transform="translate(-565.097 -262.811)" fill="#413e3b"/>
    </g>
    <g id="Grupo_472" data-name="Grupo 472" transform="translate(306.202 231.274)">
      <path id="Trazado_9" data-name="Trazado 9" d="M710.67,275.813a3.712,3.712,0,0,1,.3-1.491,3.82,3.82,0,0,1,.826-1.213,3.949,3.949,0,0,1,1.23-.817,3.766,3.766,0,0,1,1.5-.3,3.707,3.707,0,0,1,1.491.3,3.812,3.812,0,0,1,2.03,2.03,3.712,3.712,0,0,1,.3,1.491,3.651,3.651,0,0,1-.3,1.483,3.926,3.926,0,0,1-.817,1.2,3.817,3.817,0,0,1-2.7,1.1,3.834,3.834,0,0,1-3.555-2.307A3.651,3.651,0,0,1,710.67,275.813Zm.606,0a3.133,3.133,0,0,0,.252,1.247,3.283,3.283,0,0,0,1.735,1.735,3.169,3.169,0,0,0,1.264.252,3.114,3.114,0,0,0,1.255-.252,3.205,3.205,0,0,0,1.02-.7,3.348,3.348,0,0,0,.69-1.036,3.137,3.137,0,0,0,.252-1.247,3.18,3.18,0,0,0-.252-1.263,3.237,3.237,0,0,0-1.71-1.718,3.115,3.115,0,0,0-1.255-.253,3.17,3.17,0,0,0-1.264.253,3.348,3.348,0,0,0-1.036.691,3.182,3.182,0,0,0-.952,2.291Zm3.891,2.14-.74-1.584h-.27v1.584h-1.483v-4.482h1.92a4.071,4.071,0,0,1,.724.067,2.007,2.007,0,0,1,.657.236,1.446,1.446,0,0,1,.472.446,1.237,1.237,0,0,1,.186.7,1.22,1.22,0,0,1-.809,1.247l1.027,1.786Zm-.573-2.628a.518.518,0,0,0,.337-.11.344.344,0,0,0,.135-.278.25.25,0,0,0-.143-.219.64.64,0,0,0-.329-.084h-.437v.691Z" transform="translate(-710.67 -271.989)" fill="#413e3b"/>
    </g>
    <g id="Grupo_473" data-name="Grupo 473" transform="translate(189.021 249.219)">
      <path id="Trazado_10" data-name="Trazado 10" d="M348.08,332.257h-1.274l-1.38-4.135,1.339-.2.761,2.76.738-2.717h1.25Z" transform="translate(-345.426 -327.924)" fill="#413e3b"/>
      <path id="Trazado_11" data-name="Trazado 11" d="M359.281,332.33v-4.271h2.707v.984h-1.517v.582h1.148l.155,1.021h-1.3v.7h1.57v.984Z" transform="translate(-354.836 -328.016)" fill="#413e3b"/>
      <path id="Trazado_12" data-name="Trazado 12" d="M372.878,332.169l-1.244.2-.762-1.368h-.2v1.324h-1.208v-4.271h1.571c1.059,0,1.666.489,1.666,1.405a1.285,1.285,0,0,1-.708,1.225Zm-1.975-3.187h-.244v1.145h.25a.539.539,0,0,0,.607-.588C371.516,329.179,371.3,328.981,370.9,328.981Z" transform="translate(-361.751 -328.016)" fill="#413e3b"/>
      <path id="Trazado_13" data-name="Trazado 13" d="M382.58,329.111v3.219h-1.22v-3.219h-1.065v-1.052h3.3l.167,1.052Z" transform="translate(-369.108 -328.016)" fill="#413e3b"/>
      <path id="Trazado_14" data-name="Trazado 14" d="M392.276,332.33v-4.271h2.707v.984h-1.517v.582h1.148l.155,1.021h-1.3v.7h1.571v.984Z" transform="translate(-377.245 -328.016)" fill="#413e3b"/>
      <path id="Trazado_15" data-name="Trazado 15" d="M407.783,332.33h-1.541v-4.271h1.571c.952,0,1.428.4,1.428,1.108a.96.96,0,0,1-.6.91.98.98,0,0,1,.738,1.027C409.383,331.915,408.776,332.33,407.783,332.33Zm-.065-3.4h-.327v.823h.309c.316,0,.476-.167.476-.427C408.176,329.087,408.039,328.932,407.717,328.932Zm-.006,1.6h-.321v.928h.327c.333,0,.53-.155.53-.457S408.062,330.529,407.711,330.529Z" transform="translate(-386.731 -328.016)" fill="#413e3b"/>
      <path id="Trazado_16" data-name="Trazado 16" d="M417.538,332.33v-4.271h1.219v4.271Z" transform="translate(-394.402 -328.016)" fill="#413e3b"/>
      <path id="Trazado_17" data-name="Trazado 17" d="M423.4,332.33v-4.271H426.1v.984h-1.517v.582h1.148l.155,1.021h-1.3v.7h1.571v.984Z" transform="translate(-398.382 -328.016)" fill="#413e3b"/>
      <path id="Trazado_18" data-name="Trazado 18" d="M436.055,332.33,434.71,330.1v2.228h-1.13v-4.271h1.2l1.226,2.043v-2.043h1.13v4.271Z" transform="translate(-405.298 -328.016)" fill="#413e3b"/>
    </g>
    <path id="Trazado_19" data-name="Trazado 19" d="M203.964,276.85a4.841,4.841,0,0,0-1.076.441,5.348,5.348,0,0,0-.856.6,4.486,4.486,0,0,0-.636.662h-.052v-1.506h-5.838v13.648H201.5v-7.239a2.117,2.117,0,0,1,.4-1.479,1.177,1.177,0,0,1,.844-.414.9.9,0,0,1,.856.466,3.275,3.275,0,0,1,.259,1.505v7.161h5.993v-7.239a2.312,2.312,0,0,1,.364-1.414,1.074,1.074,0,0,1,.882-.48.972.972,0,0,1,.843.376,2.779,2.779,0,0,1,.272,1.491v7.265h5.994v-8.3a8.676,8.676,0,0,0-.221-1.855,5.566,5.566,0,0,0-.779-1.855,4.374,4.374,0,0,0-3.9-2,4.908,4.908,0,0,0-2.491.571,5.935,5.935,0,0,0-1.66,1.4,3.551,3.551,0,0,0-1.557-1.492,5.283,5.283,0,0,0-2.335-.48A4.745,4.745,0,0,0,203.964,276.85Z" transform="translate(-54.583 -43.902)" fill="none"/>
    <path id="Trazado_20" data-name="Trazado 20" d="M269.861,254.146a20.856,20.856,0,0,0-14.645-19.156,26.632,26.632,0,0,1,3.866,4.652,14.066,14.066,0,0,1,4.579,3.136c5.8,6.329,2.155,19.8-2.658,25.655a20.091,20.091,0,0,1-5.4,4.463,26.469,26.469,0,0,1-11.95,6.86h.006C262.7,282.842,270.708,268.849,269.861,254.146Z" transform="translate(-87.283 -15.586)" fill="#ff22a6"/>
    <path id="Trazado_21" data-name="Trazado 21" d="M187,218.05a29.519,29.519,0,0,1,9.054,1.354,26.488,26.488,0,0,0-39.51,3.223,67.723,67.723,0,0,1,7.717-1.172C169.518,219.3,176.938,218.019,187,218.05Z" transform="translate(-28.123)" fill="#ffb800"/>
    <path id="Trazado_22" data-name="Trazado 22" d="M170.583,358.8a26.524,26.524,0,0,0,23.443,5.045,34.671,34.671,0,0,1-7.611-2.2A47.512,47.512,0,0,1,170.583,358.8Z" transform="translate(-37.656 -99.673)" fill="#ffb800"/>
    <path id="Trazado_23" data-name="Trazado 23" d="M219.929,357.8a34.671,34.671,0,0,0,7.611,2.2,26.469,26.469,0,0,0,11.95-6.86C234.4,356.129,227.437,357.86,219.929,357.8Z" transform="translate(-71.171 -95.831)" fill="#ff22a6"/>
    <path id="Trazado_24" data-name="Trazado 24" d="M219.929,357.8a34.671,34.671,0,0,0,7.611,2.2,26.469,26.469,0,0,0,11.95-6.86C234.4,356.129,227.437,357.86,219.929,357.8Z" transform="translate(-71.171 -95.831)" fill="#fb1f14"/>
    <path id="Trazado_25" data-name="Trazado 25" d="M180.6,234.175c3.624-.365,7.546-.566,11.624-.714,9.317-.337,18.247.669,24.035,3.314a26.631,26.631,0,0,0-3.866-4.652,29.518,29.518,0,0,0-9.054-1.354C193.274,230.739,185.853,232.02,180.6,234.175Z" transform="translate(-44.458 -12.72)" fill="#ff22a6"/>
    <path id="Trazado_26" data-name="Trazado 26" d="M180.6,234.175c3.624-.365,7.546-.566,11.624-.714,9.317-.337,18.247.669,24.035,3.314a26.631,26.631,0,0,0-3.866-4.652,29.518,29.518,0,0,0-9.054-1.354C193.274,230.739,185.853,232.02,180.6,234.175Z" transform="translate(-44.458 -12.72)" fill="#fb1f14"/>
    <path id="Trazado_27" data-name="Trazado 27" d="M123.113,260.951a26.383,26.383,0,0,1,5.31-15.914c-9.751,2.146-15.431,6.764-12.523,17.316,2.467,8.965,7.146,15.48,16.623,19.039.134.05.269.094.4.143A26.446,26.446,0,0,1,123.113,260.951Z" transform="translate(0 -22.41)" fill="#1ec0ca"/>
    <path id="Trazado_28" data-name="Trazado 28" d="M280.9,282.744a20.09,20.09,0,0,0,5.4-4.463c4.814-5.857,8.462-19.326,2.658-25.655a14.066,14.066,0,0,0-4.579-3.136,26.489,26.489,0,0,1-3.479,33.254Z" transform="translate(-112.581 -25.434)" fill="#ff22a6"/>
    <path id="Trazado_29" data-name="Trazado 29" d="M280.9,282.744a20.09,20.09,0,0,0,5.4-4.463c4.814-5.857,8.462-19.326,2.658-25.655a14.066,14.066,0,0,0-4.579-3.136,26.489,26.489,0,0,1-3.479,33.254Z" transform="translate(-112.581 -25.434)" fill="#7f19a8"/>
    <path id="Trazado_30" data-name="Trazado 30" d="M153.021,241.384a67.729,67.729,0,0,0-7.717,1.172,26.5,26.5,0,0,0,4.5,36.5,47.512,47.512,0,0,0,15.832,2.844C146.572,274.039,131.335,250.273,153.021,241.384Z" transform="translate(-16.881 -19.929)" fill="#ffb800"/>
    <path id="Trazado_31" data-name="Trazado 31" d="M153.021,241.384a67.729,67.729,0,0,0-7.717,1.172,26.5,26.5,0,0,0,4.5,36.5,47.512,47.512,0,0,0,15.832,2.844C146.572,274.039,131.335,250.273,153.021,241.384Z" transform="translate(-16.881 -19.929)" fill="#50cc1a"/>
    <path id="Trazado_32" data-name="Trazado 32" d="M169.74,239.027c-4.078.147-8,.348-11.624.714-21.686,8.889-6.449,32.654,12.618,40.513,7.508.06,14.468-1.671,19.562-4.659a26.489,26.489,0,0,0,3.479-33.254C187.987,239.7,179.057,238.69,169.74,239.027Zm6.806,14.01a5.936,5.936,0,0,1,1.66-1.4,4.908,4.908,0,0,1,2.491-.571,4.374,4.374,0,0,1,3.9,2,5.566,5.566,0,0,1,.779,1.855,8.676,8.676,0,0,1,.221,1.855v8.3h-5.994v-7.265a2.779,2.779,0,0,0-.272-1.491.972.972,0,0,0-.843-.376,1.074,1.074,0,0,0-.882.48,2.312,2.312,0,0,0-.364,1.414v7.239h-5.993v-7.161a3.276,3.276,0,0,0-.259-1.505.9.9,0,0,0-.856-.466,1.177,1.177,0,0,0-.844.414,2.117,2.117,0,0,0-.4,1.479v7.239H162.9V251.427h5.838v1.506h.052a4.486,4.486,0,0,1,.636-.662,5.345,5.345,0,0,1,.856-.6,4.84,4.84,0,0,1,1.076-.441,4.745,4.745,0,0,1,1.3-.169,5.283,5.283,0,0,1,2.335.48A3.551,3.551,0,0,1,176.546,253.037Z" transform="translate(-21.976 -18.286)" fill="#413e3b"/>
  </g>
</svg>
