<svg xmlns="http://www.w3.org/2000/svg" width="70.67" height="57.69" viewBox="0 0 70.67 57.69">
  <g id="Grupo_477" data-name="Grupo 477" transform="translate(-3.496 -15.903) rotate(-8)">
    <path id="Trazado_39" data-name="Trazado 39" d="M62.173,25.117H2.277A2.277,2.277,0,0,0,0,27.394V72.039a2.277,2.277,0,0,0,2.277,2.277h59.9a2.277,2.277,0,0,0,2.277-2.277V27.394A2.277,2.277,0,0,0,62.173,25.117ZM59.9,29.671V36.2H4.554V29.671ZM4.554,69.763V47H59.9V69.762H4.554Z" fill="#413e3b"/>
    <path id="Trazado_40" data-name="Trazado 40" d="M45.465,114.1H28.157a2.277,2.277,0,1,0,0,4.554H45.465a2.277,2.277,0,1,0,0-4.554Z" transform="translate(-18.023 -61.965)" fill="#413e3b"/>
  </g>
</svg>
