<svg xmlns="http://www.w3.org/2000/svg" width="55.697" height="67.293" viewBox="0 0 55.697 67.293">
  <path id="Trazado_41" data-name="Trazado 41" d="M73.669,64.482l-4.095-45.6a2.415,2.415,0,0,0-2.406-2.2H58.724V12.872a12.871,12.871,0,1,0-25.743,0v3.809h-8.45a2.415,2.415,0,0,0-2.406,2.2L18.015,64.662a2.415,2.415,0,0,0,2.406,2.631H71.286A2.415,2.415,0,0,0,73.7,64.877,2.459,2.459,0,0,0,73.669,64.482ZM37.812,12.872a8.041,8.041,0,1,1,16.082,0v3.809H37.812Zm-14.75,49.59L26.74,21.512h6.242v4.319a2.415,2.415,0,0,0,4.831,0V21.512H53.894v4.319a2.415,2.415,0,1,0,4.831,0V21.512h6.236l3.677,40.951Z" transform="translate(-18.005)" fill="#413e3b"/>
</svg>
