<svg xmlns="http://www.w3.org/2000/svg" width="67.228" height="76.243" viewBox="0 0 67.228 76.243">
  <g id="Grupo_476" data-name="Grupo 476" transform="translate(-13.997 0)">
    <path id="Trazado_33" data-name="Trazado 33" d="M107.663,122.741a2.416,2.416,0,0,0,2.4,2.167,2.448,2.448,0,0,0,.251-.013,2.415,2.415,0,0,0,2.154-2.651l-1.114-10.777a2.415,2.415,0,1,0-4.8.5Z" transform="translate(-62.74 -74.104)" fill="#413e3b"/>
    <path id="Trazado_34" data-name="Trazado 34" d="M152.408,124.9a2.447,2.447,0,0,0,.251.013,2.416,2.416,0,0,0,2.4-2.167l1.114-10.777a2.415,2.415,0,0,0-4.8-.5l-1.114,10.777A2.415,2.415,0,0,0,152.408,124.9Z" transform="translate(-92.371 -74.104)" fill="#413e3b"/>
    <path id="Trazado_35" data-name="Trazado 35" d="M83.159,190.329a7.477,7.477,0,1,0,7.476,7.476A7.484,7.484,0,0,0,83.159,190.329Zm0,10.123A2.646,2.646,0,1,1,85.8,197.8,2.649,2.649,0,0,1,83.159,200.452Z" transform="translate(-41.822 -129.039)" fill="#413e3b"/>
    <path id="Trazado_36" data-name="Trazado 36" d="M160.6,190.329a7.477,7.477,0,1,0,7.477,7.476A7.484,7.484,0,0,0,160.6,190.329Zm0,10.123a2.646,2.646,0,1,1,2.646-2.647A2.65,2.65,0,0,1,160.6,200.452Z" transform="translate(-94.325 -129.039)" fill="#413e3b"/>
    <path id="Trazado_37" data-name="Trazado 37" d="M80.721,62.175a2.415,2.415,0,0,0-1.911-.938H30.67l-2.021-7.774a2.415,2.415,0,0,0-2.338-1.807h-9.9a2.415,2.415,0,1,0,0,4.83h8.031l2,7.7c.011.048.024.1.037.144L33.939,93a2.415,2.415,0,0,0,2.338,1.807H71.336A2.415,2.415,0,0,0,73.673,93l7.474-28.74A2.416,2.416,0,0,0,80.721,62.175Zm-11.252,27.8H38.144l-6.218-23.91h43.76Z" transform="translate(0 -35.022)" fill="#413e3b"/>
    <path id="Trazado_38" data-name="Trazado 38" d="M101.518,12.646h14.145l-3.693,3.693a2.415,2.415,0,1,0,3.415,3.415l7.813-7.813a2.415,2.415,0,0,0,0-3.415L115.38.708a2.415,2.415,0,0,0-3.416,3.416l3.693,3.693H101.518a2.415,2.415,0,1,0,0,4.83Z" transform="translate(-57.7 0)" fill="#413e3b"/>
  </g>
</svg>
