<svg id="Grupo_493" data-name="Grupo 493" xmlns="http://www.w3.org/2000/svg" width="35.561" height="35.561" viewBox="0 0 35.561 35.561">
  <path id="Trazado_46" data-name="Trazado 46" d="M33.477,20.3V3.195a1.042,1.042,0,0,0-1.042-1.042H27.157V1.042a1.042,1.042,0,1,0-2.084,0V2.153H20.906V1.042a1.042,1.042,0,1,0-2.084,0V2.153H14.655V1.042a1.042,1.042,0,0,0-2.084,0V2.153H8.4V1.042a1.042,1.042,0,1,0-2.084,0V2.153H1.042A1.042,1.042,0,0,0,0,3.195V30.351a1.042,1.042,0,0,0,1.042,1.042h17.35A9.373,9.373,0,1,0,33.477,20.3ZM6.32,4.237V5.279a1.042,1.042,0,0,0,2.084,0V4.237h4.167V5.279a1.042,1.042,0,0,0,2.084,0V4.237h4.167V5.279a1.042,1.042,0,1,0,2.084,0V4.237h4.167V5.279a1.042,1.042,0,1,0,2.084,0V4.237h4.237V8.4H2.084V4.237ZM2.084,29.31V10.488h29.31v7.9a9.365,9.365,0,0,0-13.075,2.7,1.036,1.036,0,0,0-.468-.112H15.766a1.042,1.042,0,0,0,0,2.084h1.578a9.3,9.3,0,0,0-.478,2.084h-1.1a1.042,1.042,0,0,0,0,2.084h1.1a9.282,9.282,0,0,0,.478,2.084Zm24.1,4.167a7.293,7.293,0,1,1,7.293-7.293A7.3,7.3,0,0,1,26.184,33.477Z" fill="#413e3b"/>
  <path id="Trazado_47" data-name="Trazado 47" d="M367.209,306.167h-3.125v-3.125a1.042,1.042,0,1,0-2.084,0v4.167a1.042,1.042,0,0,0,1.042,1.042h4.167a1.042,1.042,0,1,0,0-2.084Z" transform="translate(-336.858 -281.025)" fill="#413e3b"/>
  <path id="Trazado_48" data-name="Trazado 48" d="M94.125,182H92.042a1.042,1.042,0,1,0,0,2.084h2.084a1.042,1.042,0,1,0,0-2.084Z" transform="translate(-84.68 -169.359)" fill="#413e3b"/>
  <path id="Trazado_49" data-name="Trazado 49" d="M94.125,242H92.042a1.042,1.042,0,0,0,0,2.084h2.084a1.042,1.042,0,1,0,0-2.084Z" transform="translate(-84.68 -225.192)" fill="#413e3b"/>
  <path id="Trazado_50" data-name="Trazado 50" d="M94.125,302H92.042a1.042,1.042,0,0,0,0,2.084h2.084a1.042,1.042,0,1,0,0-2.084Z" transform="translate(-84.68 -281.025)" fill="#413e3b"/>
  <path id="Trazado_51" data-name="Trazado 51" d="M213.042,184.084h2.084a1.042,1.042,0,0,0,0-2.084h-2.084a1.042,1.042,0,1,0,0,2.084Z" transform="translate(-197.276 -169.359)" fill="#413e3b"/>
  <path id="Trazado_52" data-name="Trazado 52" d="M213.042,244.084h2.084a1.042,1.042,0,0,0,0-2.084h-2.084a1.042,1.042,0,1,0,0,2.084Z" transform="translate(-197.276 -225.192)" fill="#413e3b"/>
  <path id="Trazado_53" data-name="Trazado 53" d="M94.125,362H92.042a1.042,1.042,0,0,0,0,2.084h2.084a1.042,1.042,0,1,0,0-2.084Z" transform="translate(-84.68 -336.858)" fill="#413e3b"/>
  <path id="Trazado_54" data-name="Trazado 54" d="M333.042,184.084h2.084a1.042,1.042,0,1,0,0-2.084h-2.084a1.042,1.042,0,1,0,0,2.084Z" transform="translate(-308.941 -169.359)" fill="#413e3b"/>
</svg>
