<svg xmlns="http://www.w3.org/2000/svg" width="70.006" height="70.006" viewBox="0 0 70.006 70.006">
  <path id="Trazado_42" data-name="Trazado 42" d="M35.012,0h-.018A34.981,34.981,0,0,0,6.664,55.519l-4.362,13,13.454-4.3A35,35,0,1,0,35.012,0ZM55.379,49.429c-.844,2.385-4.2,4.362-6.869,4.94-1.829.389-4.218.7-12.26-2.634C25.963,47.473,19.339,37.02,18.823,36.342c-.494-.678-4.157-5.535-4.157-10.558a11.175,11.175,0,0,1,3.579-8.519,5.086,5.086,0,0,1,3.579-1.256c.433,0,.823.022,1.173.039,1.028.044,1.545.105,2.223,1.728.844,2.035,2.9,7.057,3.146,7.574a2.083,2.083,0,0,1,.149,1.895,6.049,6.049,0,0,1-1.133,1.606c-.516.6-1.006,1.05-1.523,1.689-.473.556-1.006,1.151-.411,2.179a31.069,31.069,0,0,0,5.679,7.057,25.734,25.734,0,0,0,8.208,5.062,2.213,2.213,0,0,0,2.468-.389,42.352,42.352,0,0,0,2.735-3.623,1.954,1.954,0,0,1,2.511-.761c.945.328,5.946,2.8,6.974,3.312s1.706.761,1.956,1.194S56.223,47.04,55.379,49.429Z" fill="#4caf50"/>
</svg>
