<?xml version="1.0" encoding="utf-8"?>
<!-- Generator: Adobe Illustrator 23.0.1, SVG Export Plug-In . SVG Version: 6.00 Build 0)  -->
<svg version="1.1" id="Layer_1" xmlns="http://www.w3.org/2000/svg" xmlns:xlink="http://www.w3.org/1999/xlink" x="0px" y="0px"
	 viewBox="0 0 16 16" style="enable-background:new 0 0 16 16;" xml:space="preserve">
<style type="text/css">
	.st0{fill:#FFFFFF;}
</style>
<path class="st0" d="M9.1,5c0,0.6-0.5,1-1,1c-0.6,0-1-0.5-1-1c0-0.6,0.5-1,1-1C8.7,4,9.1,4.5,9.1,5z M8.8,11c0,0.5-0.3,0.9-0.8,1
	c-0.5,0-0.9-0.3-1-0.8C7,11.1,7,11,7,11l0.5-3.5C7.5,7.2,7.8,7,8.1,7c0.3,0,0.5,0.2,0.5,0.5L8.8,11z"/>
</svg>
