<?xml version="1.0" encoding="utf-8"?>
<!-- Generator: Adobe Illustrator 23.0.1, SVG Export Plug-In . SVG Version: 6.00 Build 0)  -->
<svg version="1.1" id="Layer_1" xmlns="http://www.w3.org/2000/svg" xmlns:xlink="http://www.w3.org/1999/xlink" x="0px" y="0px"
	 viewBox="0 0 16 16" style="enable-background:new 0 0 16 16;" xml:space="preserve">
<style type="text/css">
	.st0{fill:#FFFFFF;}
</style>
<path class="st0" d="M0,1.5C0,1.2,0.2,1,0.5,1H2c0.2,0,0.4,0.2,0.5,0.4L2.9,3h11.6C14.8,3,15,3.2,15,3.5c0,0,0,0.1,0,0.1l-1,5
	c0,0.2-0.2,0.4-0.5,0.4L4.1,9.5L4.4,11H13c0.3,0,0.5,0.2,0.5,0.5S13.3,12,13,12H4c-0.2,0-0.4-0.2-0.5-0.4L2,3.6L1.6,2H0.5
	C0.2,2,0,1.8,0,1.5z M3.1,4l0.8,4.5L13.1,8l0.8-4H3.1z M5,12c-1.1,0-2,0.9-2,2s0.9,2,2,2s2-0.9,2-2S6.1,12,5,12z M12,12
	c-1.1,0-2,0.9-2,2s0.9,2,2,2s2-0.9,2-2S13.1,12,12,12z M5,13c0.6,0,1,0.4,1,1s-0.4,1-1,1s-1-0.4-1-1S4.4,13,5,13z M12,13
	c0.6,0,1,0.4,1,1s-0.4,1-1,1s-1-0.4-1-1S11.4,13,12,13z"/>
</svg>
